<?xml version="1.0" encoding="UTF-8" standalone="no"?>
<!-- Generator: Adobe Illustrator 19.0.0, SVG Export Plug-In . SVG Version: 6.00 Build 0)  -->

<svg
   xmlns:dc="http://purl.org/dc/elements/1.1/"
   xmlns:cc="http://creativecommons.org/ns#"
   xmlns:rdf="http://www.w3.org/1999/02/22-rdf-syntax-ns#"
   xmlns:svg="http://www.w3.org/2000/svg"
   xmlns="http://www.w3.org/2000/svg"
   xmlns:sodipodi="http://sodipodi.sourceforge.net/DTD/sodipodi-0.dtd"
   xmlns:inkscape="http://www.inkscape.org/namespaces/inkscape"
   version="1.1"
   id="Layer_1"
   x="0px"
   y="0px"
   viewBox="0 0 262.60712 229.20096"
   xml:space="preserve"
   sodipodi:docname="ninjecto.svg"
   width="262.60712"
   height="229.20096"
   inkscape:version="0.92.3 (2405546, 2018-03-11)"><metadata
   id="metadata71"><rdf:RDF><cc:Work
       rdf:about=""><dc:format>image/svg+xml</dc:format><dc:type
         rdf:resource="http://purl.org/dc/dcmitype/StillImage" /><dc:title /></cc:Work></rdf:RDF></metadata><defs
   id="defs69" /><sodipodi:namedview
   pagecolor="#ffffff"
   bordercolor="#666666"
   borderopacity="1"
   objecttolerance="10"
   gridtolerance="10"
   guidetolerance="10"
   inkscape:pageopacity="0"
   inkscape:pageshadow="2"
   inkscape:window-width="1920"
   inkscape:window-height="1016"
   id="namedview67"
   showgrid="false"
   fit-margin-top="5"
   fit-margin-left="5"
   fit-margin-right="5"
   fit-margin-bottom="5"
   borderlayer="true"
   inkscape:showpageshadow="false"
   inkscape:zoom="3.6125503"
   inkscape:cx="131.30356"
   inkscape:cy="114.60048"
   inkscape:window-x="1920"
   inkscape:window-y="27"
   inkscape:window-maximized="1"
   inkscape:current-layer="Layer_1" />













<g
   id="g36"
   transform="translate(860.47955,-190.95333)">
</g>
<g
   id="g38"
   transform="translate(860.47955,-190.95333)">
</g>
<g
   id="g40"
   transform="translate(860.47955,-190.95333)">
</g>
<g
   id="g42"
   transform="translate(860.47955,-190.95333)">
</g>
<g
   id="g44"
   transform="translate(860.47955,-190.95333)">
</g>
<g
   id="g46"
   transform="translate(860.47955,-190.95333)">
</g>
<g
   id="g48"
   transform="translate(860.47955,-190.95333)">
</g>
<g
   id="g50"
   transform="translate(860.47955,-190.95333)">
</g>
<g
   id="g52"
   transform="translate(860.47955,-190.95333)">
</g>
<g
   id="g54"
   transform="translate(860.47955,-190.95333)">
</g>
<g
   id="g56"
   transform="translate(860.47955,-190.95333)">
</g>
<g
   id="g58"
   transform="translate(860.47955,-190.95333)">
</g>
<g
   id="g60"
   transform="translate(860.47955,-190.95333)">
</g>
<g
   id="g62"
   transform="translate(860.47955,-190.95333)">
</g>
<g
   id="g64"
   transform="translate(860.47955,-190.95333)">
</g>
<path
   inkscape:connector-curvature="0"
   style="fill:#ccd1d9;fill-opacity:1;stroke-width:0.38707379"
   d="m 6.2111563,27.734004 c 1.6086787,-1.614872 4.2094277,-1.614872 5.8181057,0 l 40.773966,40.767774 c 1.608679,1.602873 1.608679,4.215621 0,5.823912 -1.614871,1.608679 -4.221426,1.608679 -5.830105,0 L 6.2111563,33.551723 c -1.6148718,-1.608679 -1.6148718,-4.20904 0,-5.817719 z"
   id="path3776" /><path
   inkscape:connector-curvature="0"
   style="fill:#e6e9ed;stroke-width:0.38707379"
   d="m 131.57545,180.519 c 1.09465,0 2.1471,-0.43546 2.91506,-1.20961 l 23.29603,-23.29642 c 1.61487,-1.60287 1.61487,-4.20865 0,-5.81733 L 76.099652,68.501778 C 75.325504,67.72763 74.279244,67.292172 73.184599,67.292172 H 49.888176 c -1.137223,0 -2.171097,0.46565 -2.915053,1.209606 -0.737376,0.743956 -1.203025,1.772024 -1.203025,2.909247 v 23.296036 c 0,1.094644 0.435458,2.140905 1.203025,2.915052 L 128.6724,179.30939 c 0.76796,0.77415 1.82041,1.20961 2.90305,1.20961 z"
   id="path3778" /><path
   style="fill:#48cfad;stroke-width:0.38707379"
   d="m 105.23085,97.622369 -58.24099,7.74e-4 49.500835,49.507647 0.0015,-0.002 20.379585,20.38185 0.002,-0.002 8.8906,8.89136 29.10613,-29.11823 c 0.003,-0.003 0.007,-0.006 0.0106,-0.01 l -8.88833,-8.88833 -20.3811,-20.38034 z"
   id="path3780"
   inkscape:connector-curvature="0"
   sodipodi:nodetypes="cccccccccccc" /><path
   inkscape:connector-curvature="0"
   style="fill:#e6e9ed;stroke-width:0.38707379"
   d="m 181.08258,218.37791 c 1.09464,0 2.14671,-0.43546 2.90886,-1.2096 l 11.65402,-11.64822 c 1.60867,-1.60829 1.60867,-4.21523 0,-5.81772 l -43.67702,-43.6894 c -0.77415,-0.77415 -1.82041,-1.20341 -2.91506,-1.20341 -1.09464,0 -2.1409,0.42926 -2.91505,1.20341 l -11.64782,11.6544 c -1.60868,1.6083 -1.60868,4.21524 0,5.82392 l 43.68321,43.67702 c 0.76795,0.77414 1.82041,1.2096 2.90886,1.2096 z"
   id="path3782" /><path
   inkscape:connector-curvature="0"
   style="fill:#ccd1d9;stroke-width:0.38707379"
   d="m 154.87149,147.28058 c 1.61487,-1.60829 4.22104,-1.60829 5.83011,0 1.60287,1.60868 1.60287,4.21562 0,5.82392 l -29.11995,29.11994 c -1.60868,1.60868 -4.21562,1.60868 -5.82391,0 -1.60868,-1.60867 -1.60868,-4.21562 0,-5.8181 z"
   id="path3784" /><g
   id="g3794"
   transform="matrix(0,0.38707379,-0.38707379,0,202.67587,26.446597)">
	<path
   inkscape:connector-curvature="0"
   style="fill:#434a54"
   d="m 266.628,319.495 -15.046,-15.047 c -4.141,-4.156 -10.891,-4.141 -15.046,0 -4.156,4.156 -4.156,10.891 0,15.047 l 15.046,15.045 z"
   id="path3786" />
	<path
   inkscape:connector-curvature="0"
   style="fill:#434a54"
   d="m 221.489,364.632 -15.046,-15.047 c -4.156,-4.156 -10.891,-4.156 -15.031,0 -4.172,4.156 -4.172,10.906 0,15.047 l 15.031,15.046 z"
   id="path3788" />
	<path
   inkscape:connector-curvature="0"
   style="fill:#434a54"
   d="m 311.782,274.324 -15.03,-15.03 c -4.172,-4.172 -10.891,-4.156 -15.047,0 -4.156,4.155 -4.156,10.874 0,15.03 l 15.047,15.046 z"
   id="path3790" />
	<path
   inkscape:connector-curvature="0"
   style="fill:#434a54"
   d="M 356.905,229.216 341.858,214.17 c -4.156,-4.156 -10.891,-4.156 -15.046,0 -4.155,4.156 -4.155,10.905 0,15.046 l 15.046,15.062 z"
   id="path3792" />
</g><path
   inkscape:connector-curvature="0"
   style="fill:#ccd1d9;stroke-width:0.38707379"
   d="m 195.64546,193.87266 c 1.60867,-1.60288 4.21562,-1.60288 5.8243,0 1.60829,1.60867 1.60829,4.21523 0,5.8301 l -23.29643,23.29604 c -1.61487,1.60287 -4.21562,1.60287 -5.82391,0 -1.60868,-1.60868 -1.60868,-4.22104 0,-5.83011 z"
   id="path3796" /><path
   inkscape:connector-curvature="0"
   style="fill:#eccc71;stroke-width:0.38707379"
   d="m 166.78058,160.51348 c -1.65242,0 -3.30483,-0.63093 -4.56592,-1.89241 l -38.66287,-38.66286 c -1.70506,-1.70506 -2.31896,-4.21717 -1.59126,-6.51484 0.72925,-2.3 2.67623,-4.0008 5.0517,-4.41497 2.70758,-0.46874 5.32072,-0.69789 7.99463,-0.69789 h 64.58171 c 2.14632,0 4.32865,0.15328 6.86359,0.48578 2.43857,0.3174 4.48619,1.99498 5.27659,4.32439 0.79273,2.32941 0.19315,4.90654 -1.54752,6.64528 l -38.83511,38.83511 c -1.2607,1.26186 -2.91312,1.89241 -4.56554,1.89241 z"
   id="path6" /><path
   inkscape:connector-curvature="0"
   style="fill:#e3b962;stroke-width:0.38707379"
   d="m 206.45255,108.81667 c -2.53533,-0.33211 -4.71766,-0.48577 -6.86359,-0.48577 h -32.37718 v 52.09858 c 1.50301,-0.10219 2.98589,-0.6588 4.13511,-1.80841 L 210.182,119.78596 c 1.74068,-1.73835 2.33987,-4.31587 1.54753,-6.64528 -0.79041,-2.32903 -2.83803,-4.00661 -5.27698,-4.32401 z"
   id="path8" /><path
   inkscape:connector-curvature="0"
   style="fill:#38384d;stroke-width:0.38707379"
   d="M 128.4626,198.74553 H 96.176 c -3.567659,0 -6.458326,-2.89067 -6.458326,-6.45833 v -38.74879 c 0,-5.426 0.977748,-10.79278 2.905376,-15.95441 3.636945,-9.66175 10.55357,-17.86501 19.48375,-23.11256 4.69636,-2.68862 9.64278,-4.50516 14.7746,-5.43452 2.08556,-0.37198 4.21949,0.29456 5.71592,1.78905 l 38.66287,38.66287 c 2.52256,2.52024 2.52256,6.61161 0,9.13223 l -38.23206,38.23205 c -1.21038,1.21116 -2.85196,1.89241 -4.56553,1.89241 z"
   id="path10" /><path
   inkscape:connector-curvature="0"
   style="fill:#575771;stroke-width:0.38707379"
   d="m 243.58647,143.40675 c 0.73622,3.2611 1.12329,6.65264 1.12329,10.13166 v 38.74918 c 0,3.5665 -2.89144,6.45832 -6.45833,6.45832 H 112.87204 l 87.93155,-87.93155 c 1.50262,-1.50262 3.62301,-2.30657 5.7225,-1.97562 18.68986,2.94408 33.05223,16.81835 37.06038,34.56801 z"
   id="path12" /><path
   inkscape:connector-curvature="0"
   style="fill:#494965;stroke-width:0.38707379"
   d="m 206.52609,108.83835 c -2.0991,-0.33056 -4.21988,0.473 -5.7225,1.97563 l -33.5922,33.59219 v 54.33974 h 71.04004 c 3.5665,0 6.45833,-2.89144 6.45833,-6.45832 v -38.7488 c 0,-3.47863 -0.38669,-6.87056 -1.12329,-10.13165 -4.00815,-17.75005 -18.37052,-31.62471 -37.06038,-34.56879 z"
   id="path14" /><path
   inkscape:connector-curvature="0"
   style="fill:#eccc71;stroke-width:0.38707379"
   d="M 217.32777,82.498366 H 117.26765 c -2.93905,0 -5.50806,-1.984527 -6.25008,-4.831068 -1.22354,-4.698689 -1.84363,-9.590527 -1.84363,-14.543523 0,-4.952997 0.62009,-9.844835 1.84363,-14.543524 0.74241,-2.846154 3.31103,-4.831068 6.25008,-4.831068 h 100.06012 c 2.93905,0 5.50806,1.984527 6.25008,4.831068 1.22354,4.698689 1.84364,9.590527 1.84364,14.543524 0,4.952996 -0.6201,9.844834 -1.84364,14.543523 -0.74202,2.846541 -3.31103,4.831068 -6.25008,4.831068 z"
   id="path16" /><path
   inkscape:connector-curvature="0"
   style="fill:#e3b962;stroke-width:0.38707379"
   d="m 217.32777,43.749183 h -50.11638 v 38.749183 h 50.11638 c 2.93905,0 5.50806,-1.984527 6.25008,-4.831068 1.22354,-4.698689 1.84364,-9.590527 1.84364,-14.543523 0,-4.952997 -0.6201,-9.844835 -1.84364,-14.543524 -0.74202,-2.846541 -3.31103,-4.831068 -6.25008,-4.831068 z"
   id="path18" /><path
   inkscape:connector-curvature="0"
   style="fill:#494965;stroke-width:0.38707379"
   d="m 118.44281,94.656354 c 10.47305,16.237746 28.68216,26.590806 48.8549,26.590806 19.44504,0 37.06541,-9.61956 47.69136,-24.854393 5.35478,-7.677222 8.93328,-16.780423 10.07476,-26.797119 -3.95705,-0.01393 -7.73644,-0.01393 -7.73644,-0.01393 H 117.26765 c 0,0 -3.77939,0 -7.73683,0 1.05594,9.277771 4.2013,17.771332 8.91199,25.07464 z"
   id="path20" /><path
   inkscape:connector-curvature="0"
   style="fill:#38384d;stroke-width:0.38707379"
   d="m 167.21139,69.581714 v 51.660026 c 0.0294,0 0.0569,0.005 0.0859,0.005 19.44503,0 37.06541,-9.61956 47.69136,-24.854393 5.35478,-7.677222 8.93366,-16.780423 10.07475,-26.797119 -3.95744,-0.01393 -7.73644,-0.01393 -7.73644,-0.01393 z"
   id="path22" /><path
   id="path26"
   d="m 188.81476,69.581714 c -3.56766,0 -6.45833,-2.890667 -6.45833,-6.458327 V 50.207122 c 0,-3.567659 2.89067,-6.458326 6.45833,-6.458326 3.56766,0 6.45832,2.890667 6.45832,6.458326 v 12.916265 c -3.8e-4,3.56766 -2.89105,6.458327 -6.45832,6.458327 z"
   style="fill:#494965;stroke-width:0.38707379"
   inkscape:connector-curvature="0" /><path
   id="path28"
   d="m 225.3162,43.764666 h -12.91626 c -3.54482,0 -6.45214,-2.858927 -6.45833,-6.403362 -0.0298,-17.831328 14.4665,-32.3458209 32.29086,-32.3458209 h 12.91626 c 3.54482,0 6.45214,2.858927 6.45833,6.4033619 0.0298,17.831328 -14.46611,32.345821 -32.29086,32.345821 z"
   style="fill:#494965;stroke-width:0.38707379"
   inkscape:connector-curvature="0" /><path
   id="path30"
   d="m 216.15262,31.588099 c 4.71107,7.302534 7.85721,15.79532 8.91276,25.071156 -3.95744,0.0062 -7.73722,0.0062 -7.73722,0.0062 H 117.26765 c 0,0 -3.779,0 -7.73606,0 1.1411,-10.030243 4.71998,-19.133831 10.07476,-26.811053 10.62634,-15.234837 28.24632,-24.8543949 47.69136,-24.8543949 20.17274,0 38.38147,10.3530629 48.85491,26.5880989 z"
   style="fill:#494965;stroke-width:0.38707379"
   inkscape:connector-curvature="0" /><path
   inkscape:connector-curvature="0"
   style="fill:#38384d;stroke-width:0.38707379"
   d="m 167.29771,5.0000001 c -0.0294,0 -0.0569,0.00503 -0.0859,0.00503 V 56.665448 h 50.11638 c 0,0 3.77978,0 7.73722,-0.0066 -1.05555,-9.275836 -4.20169,-17.768622 -8.91276,-25.071156 C 205.67918,15.353063 187.47045,5.0000001 167.29771,5.0000001 Z"
   id="path34" /><g
   id="g3810"
   transform="translate(25.241452,-236.49794)">
</g><g
   id="g3812"
   transform="translate(25.241452,-236.49794)">
</g><g
   id="g3814"
   transform="translate(25.241452,-236.49794)">
</g><g
   id="g3816"
   transform="translate(25.241452,-236.49794)">
</g><g
   id="g3818"
   transform="translate(25.241452,-236.49794)">
</g><g
   id="g3820"
   transform="translate(25.241452,-236.49794)">
</g><g
   id="g3822"
   transform="translate(25.241452,-236.49794)">
</g><g
   id="g3824"
   transform="translate(25.241452,-236.49794)">
</g><g
   id="g3826"
   transform="translate(25.241452,-236.49794)">
</g><g
   id="g3828"
   transform="translate(25.241452,-236.49794)">
</g><g
   id="g3830"
   transform="translate(25.241452,-236.49794)">
</g><g
   id="g3832"
   transform="translate(25.241452,-236.49794)">
</g><g
   id="g3834"
   transform="translate(25.241452,-236.49794)">
</g><g
   id="g3836"
   transform="translate(25.241452,-236.49794)">
</g><g
   id="g3838"
   transform="translate(25.241452,-236.49794)">
</g><path
   style="fill:none;fill-rule:evenodd;stroke:#494965;stroke-width:3.33503985;stroke-linecap:round;stroke-linejoin:miter;stroke-opacity:1"
   d="m 138.21839,65.889576 c 0,0 1.15398,-6.462271 7.84705,-6.462271 6.69306,0 6.92386,6.923861 6.92386,6.923861"
   id="path4090"
   inkscape:connector-curvature="0" /></svg>